# xmcd
#
# Track frame offsets:
#   150
#   12792
#   26071
#   38326
#   52520
#   67185
#   83841
#   98882
#   115846
#
# Disc length: 1722 seconds
#
# Revision: 0
# Processed by: cddbd v1.4PL0 Copyright (c) Steve Scherf et al.
# Submitted via: uFREEDB 1.6.0
#
DISCID=6106b809
DTITLE=Floyd Brown - After Hours
DYEAR=1900
DGENRE=Blues
TTITLE0=???
TTITLE1=???
TTITLE2=???
TTITLE3=???
TTITLE4=???
TTITLE5=???
TTITLE6=????
TTITLE7=???
TTITLE8=???
EXTD=Local Pub player from Baton Rouge, La. Ripped from vinyl for a friend.
EXTT0=
EXTT1=
EXTT2=
EXTT3=
EXTT4=
EXTT5=
EXTT6=
EXTT7=
EXTT8=
PLAYORDER=
